<svg width="90" height="88" viewBox="0 0 90 88" fill="none" xmlns="http://www.w3.org/2000/svg">
<path d="M15.3455 25.6381C14.3531 25.5536 13.4638 24.8169 14.3949 23.8846C14.8524 23.4265 15.7568 22.8953 16.3058 22.5001L21.0452 19.0647L28.6858 13.5972C30.6415 12.1852 32.6025 10.7381 34.6821 9.51095C36.751 8.28992 38.9611 9.6567 40.8561 10.4336L47.8748 13.386C50.0539 14.298 52.1188 15.0843 54.2647 16.1161C57.0249 17.4432 54.5665 18.7058 53.1093 19.8941C51.8148 20.9479 50.5274 22.0106 49.2472 23.0818C48.8947 23.3262 48.8714 23.5366 48.736 23.9576C49.5426 24.7386 50.4897 25.4802 51.351 26.21C51.9102 26.6837 52.6311 27.3837 53.21 27.779C57.1444 30.4656 61.2642 33.0391 65.0167 35.9654C65.583 36.407 66.8192 37.3419 67.2677 37.8156C68.3355 38.9434 69.8074 40.8246 69.772 42.4554C69.6947 46.0187 66.2204 49.8293 63.9182 52.256C62.7947 53.4402 61.4348 54.6503 60.2338 55.739C59.5154 56.3901 58.5399 57.0424 57.846 57.686C56.2925 57.595 54.5542 57.529 53.0209 57.3597C56.5501 55.5557 59.7133 52.4121 60.9481 48.5852C62.7095 43.1259 60.7448 36.203 55.9611 32.8841C52.8216 30.7058 48.8098 30.8401 45.4522 32.537C44.0054 33.2211 41.9904 34.7075 40.3869 34.9329C38.6659 35.1748 36.2821 34.5751 34.5017 34.3562C20.8753 32.6801 15.6148 51.9966 26.6056 58.7588C28.7793 60.0962 33.1436 61.0763 35.7798 61.0212C35.6172 62.5044 35.2834 64.4212 34.9965 65.9096L34.7906 67.2213C34.3006 67.1632 33.7733 67.084 33.283 67.0925C31.8672 65.7229 29.7204 65.1378 28.4342 63.6242C28.1355 63.2726 27.7901 62.9404 27.4488 62.6302C27.39 62.621 27.1185 62.5255 27.0485 62.5023C25.8816 61.9713 24.5242 61.6846 23.321 61.0912C22.0367 60.4579 20.55 60.0366 19.276 59.3676C9.20777 54.0805 7.67576 50.7905 15.2902 42.0001L20.2351 36.3048C21.8322 34.453 24.3761 31.5562 25.4165 29.3282L25.3299 29.2908C24.8742 29.3656 25.1075 28.9435 24.6119 28.8097C22.6943 28.548 18.5814 26.7587 16.6512 26.0864C16.2869 25.846 15.7759 25.702 15.3455 25.6381Z" fill="#022B8D"/>
<path d="M15.3455 25.6381C14.3531 25.5536 13.4638 24.8169 14.3949 23.8846C14.8524 23.4265 15.7568 22.8953 16.3058 22.5001L21.0452 19.0647L28.6858 13.5972C30.6415 12.1852 32.6024 10.7381 34.6821 9.51095C36.751 8.28992 38.9611 9.6567 40.8561 10.4336L47.8748 13.386C50.0539 14.298 52.1188 15.0843 54.2647 16.1161C57.0249 17.4432 54.5665 18.7058 53.1093 19.8941C51.8148 20.9479 50.5274 22.0106 49.2472 23.0818C48.8947 23.3262 48.8714 23.5366 48.736 23.9576C46.7957 22.4817 44.2226 21.1093 41.8327 20.7189C35.5908 19.6991 29.6884 23.542 26.1067 28.3774C26.034 28.4755 25.4557 29.2973 25.4165 29.3282L25.3299 29.2908C24.8742 29.3656 25.1075 28.9435 24.6119 28.8097C22.6943 28.548 18.5814 26.7587 16.6512 26.0864C16.2869 25.846 15.7759 25.702 15.3455 25.6381Z" fill="#022B8D"/>
<path d="M24.6119 28.8097C25.636 25.4042 28.9385 23.0462 31.7397 21.1478C36.3834 18.001 45.8593 17.9183 49.2472 23.0818C48.8947 23.3262 48.8714 23.5366 48.736 23.9576C46.7957 22.4817 44.2226 21.1093 41.8327 20.7189C35.5908 19.6991 29.6884 23.542 26.1067 28.3774C26.034 28.4755 25.4557 29.2973 25.4165 29.3282L25.3299 29.2908C24.8742 29.3656 25.1075 28.9435 24.6119 28.8097Z" fill="#FEE4B4"/>
<path d="M27.4488 62.6302C27.8461 62.5848 28.2991 62.7849 28.6932 62.8593C30.9237 63.2804 33.0607 64.6498 34.9965 65.9096L34.7906 67.2213C34.3006 67.1632 33.7733 67.084 33.283 67.0925C31.8672 65.7229 29.7204 65.1378 28.4342 63.6242C28.1355 63.2726 27.7901 62.9404 27.4488 62.6302Z" fill="#F9C436"/>
<path d="M39.0803 57.1777C39.9581 57.1638 41.1731 57.2827 42.0668 57.346L46.9383 57.6885C50.7597 57.9582 54.7106 58.3105 58.5352 58.6841C59.4141 58.7699 59.8404 59.5382 59.8397 60.3393C59.8385 61.7824 58.9622 61.6036 58.2355 62.6141C56.6575 65.4093 57.0082 67.5497 58.7443 69.937L58.0286 74.458C57.6929 76.5601 57.6449 79.3036 54.8497 79.256C49.0254 79.0879 43.0598 78.1236 37.2482 77.6983C36.6794 77.6567 35.4815 77.5051 35.1492 77.0462C35.2673 76.5395 36.3963 76.1044 36.7836 75.6662C38.8332 73.3472 39.0723 68.6494 35.4955 67.6519C35.8169 64.9138 36.6171 61.9752 36.9971 59.2105C37.1603 58.0229 37.8799 57.3608 39.0803 57.1777Z" fill="#022B8D"/>
<path d="M46.9679 62.1637C50.3149 62.0685 53.1052 64.705 53.1999 68.0521C53.2944 71.3991 50.6575 74.189 47.3104 74.283C43.9641 74.377 41.175 71.7408 41.0804 68.3946C40.9859 65.0482 43.6216 62.2587 46.9679 62.1637Z" fill="#F9C436"/>
<path d="M50.4164 65.3744C51.0224 65.3121 51.8889 66.1283 51.5573 66.4386C50.2493 67.6626 47.7984 70.6491 46.35 71.4993C45.5185 71.1072 44.9396 70.4902 44.3651 69.7994C43.9716 69.273 42.8991 68.0731 43.5474 67.4242C44.5848 67.1125 45.7591 68.6472 46.3137 69.3704C46.9779 68.7093 47.6883 68.0745 48.3569 67.406C49.0256 66.7372 49.6792 65.9488 50.4164 65.3744Z" fill="#022B8D"/>
<path d="M27.0485 62.5023C27.1185 62.5256 27.39 62.621 27.4488 62.6302C27.7901 62.9404 28.1355 63.2726 28.4342 63.6242C29.7204 65.1378 31.8672 65.7229 33.283 67.0925C32.644 67.1199 29.5906 67.3937 29.3755 67.9604L29.4882 68.1062C29.9018 68.1865 30.8172 67.9616 31.2972 67.8932C32.9767 67.6191 35.6303 67.7164 36.7086 69.3082C38.1864 71.4895 37.6188 74.3036 35.4445 75.7599C33.2061 77.2593 30.1531 77.5281 27.6296 77.1743C23.9171 76.6537 21.7143 73.489 22.4167 69.8508C22.8376 67.554 23.7102 66.0897 25.2311 64.3539C25.8634 63.6323 26.2299 63.0835 27.0485 62.5023Z" fill="#022B8D"/>
<path d="M59.9913 58.5107C61.4129 58.6838 63.4027 60.0603 64.1746 61.2617C65.1123 62.721 65.4427 64.5464 65.078 66.2441C64.6704 68.1416 63.817 68.8953 62.264 69.9017C59.5836 70.6958 57.9119 68.8224 57.9703 66.1925C58.0184 64.0211 58.3886 62.1473 60.7517 61.3902C60.7633 59.9775 60.9607 59.5738 59.9913 58.5107Z" fill="#022B8D"/>
<path d="M31.1661 44.1088C33.0758 43.7396 35.6838 45.1143 36.7556 46.6795C37.511 47.7828 37.0508 49.6647 35.449 48.9141C34.7476 48.5855 34.4217 47.8711 33.7852 47.4649C33.1955 47.0885 32.4453 46.9016 31.7756 46.7047C31.2354 46.8925 30.7565 47.1202 30.2373 47.3577C27.6592 48.6836 28.9663 51.0154 27.3509 51.3683C24.7902 51.9277 26.0145 47.7529 26.9289 46.6194C28.1429 45.1143 29.2242 44.4341 31.1661 44.1088Z" fill="#022B8D"/>
<path d="M51.2837 40.4119C53.2047 40.2197 54.7744 40.6718 56.1178 42.1878C57.028 43.1608 58.9286 45.6577 56.5518 46.1607C55.5113 46.381 55.0052 44.929 54.4513 44.2741C53.7527 43.4482 53.0224 43.2312 52.001 43.119C48.7357 43.5425 49.392 46.3753 47.7664 47.0002C45.8341 47.7429 46.3356 44.1129 47.3169 43.0008C48.616 41.5286 49.3511 40.7879 51.2837 40.4119Z" fill="#022B8D"/>
<path d="M14.9798 30.1808C15.4547 30.1739 15.7926 30.1715 16.2702 30.2133C17.3416 30.9521 17.3356 31.6066 16.9981 32.7813C17.0674 32.9642 17.1342 33.1481 17.1984 33.3328C17.6083 34.5191 18.1959 36.7327 17.6743 37.9467C16.9341 39.6695 12.8173 39.1026 12.4526 37.4171C12.2563 35.8421 13.2485 34.1789 13.5939 32.7553C13.8919 31.5276 13.1899 30.6299 14.9798 30.1808Z" fill="#F9C436"/>
<path d="M34.2574 77.1989C34.5044 77.4068 34.8125 77.7562 35.0815 77.9102C36.2007 78.551 38.2255 78.5495 39.561 78.6531C38.067 79.7655 37.4694 80.8595 35.5199 81.5813C35.3446 81.6263 35.1684 81.6674 34.9913 81.7046C32.0628 82.3115 30.7759 80.5995 30.3024 77.9669C31.5479 77.8845 33.089 77.6417 34.2574 77.1989Z" fill="#022B8D"/>
<path d="M75.2322 32.8305C75.9012 32.765 76.5517 32.864 76.8355 33.5534C77.4599 35.0696 73.4646 36.9741 72.3801 37.4093C72.156 37.4603 71.7926 37.5164 71.575 37.4003C68.9905 36.0217 73.9743 33.362 75.2322 32.8305Z" fill="#F9C436"/>
<path d="M40.1853 78.6862L47.8405 79.3377C47.389 79.7851 46.9005 80.202 46.4218 80.6211C43.9149 82.6952 40.7822 82.3064 40.1853 78.6862Z" fill="#022B8D"/>
<path d="M14.7007 62.5091C15.4837 62.4137 16.2846 62.5918 16.4403 63.5053C16.4873 63.7884 16.4192 64.0785 16.2513 64.3113C15.6474 65.1498 12.9486 65.4757 11.88 65.6326C10.6191 65.7641 9.62526 64.8517 10.2656 63.7075C10.7242 62.8877 13.6348 62.657 14.7007 62.5091Z" fill="#F9C436"/>
<path d="M17.3752 66.59C20.2994 67.247 17.1881 70.2251 16.3241 71.3269C15.9384 71.8188 15.5452 72.0995 14.9279 72.246C11.4475 71.7134 16.2754 67.1901 17.3752 66.59Z" fill="#F9C436"/>
<path d="M69.4311 27.2543C70.3738 27.2206 71.0854 27.7313 70.8628 28.7406C70.6082 29.8947 69.4737 32.6777 68.5585 33.3958C65.8 34.0611 67.7737 29.7651 68.1944 28.7163C68.4617 28.0499 68.7342 27.5266 69.4311 27.2543Z" fill="#F9C436"/>
<path d="M73.1603 40.2364C73.6532 40.2131 74.2592 40.2518 74.7778 40.2817C76.0249 40.3537 78.598 40.2807 78.0934 42.2498C77.9895 42.6555 77.6407 42.8453 77.2899 43.0246C76.3549 43.0801 73.0882 42.8415 72.514 41.8964C72.1599 41.3138 72.5984 40.585 73.1603 40.2364Z" fill="#F9C436"/>
<path d="M57.1592 47.7118C57.7928 47.6459 59.3795 47.7066 59.4433 48.5042C59.5707 50.0957 57.494 50.7103 56.3955 50.9486C55.7543 51.0546 55.2862 51.0374 54.6837 50.7847C54.0929 50.5188 54.0665 49.8373 54.3693 49.3547C54.9768 48.3866 56.1021 47.9523 57.1592 47.7118Z" fill="#F9C436"/>
<path d="M26.7477 53.0419C27.7752 52.9655 30.0663 52.9421 30.4117 54.1966C30.4567 54.3629 30.4314 54.5404 30.342 54.6876C30.1011 55.0912 29.2046 55.6328 28.737 55.7634C24.778 56.5155 23.3258 53.695 26.7477 53.0419Z" fill="#F9C436"/>
<path d="M15.3455 25.6381C15.7759 25.702 16.2869 25.846 16.6512 26.0864C16.5669 27.1411 16.4533 29.2559 16.2702 30.2133C15.7926 30.1714 15.4547 30.1739 14.9798 30.1808C14.9717 29.1815 15.2097 26.6344 15.3455 25.6381Z" fill="#F9C436"/>
</svg>
