<svg width="90" height="88" viewBox="0 0 90 88" fill="none" xmlns="http://www.w3.org/2000/svg">
<path d="M9.27034 26.3985C8.54208 26.1989 7.87388 25.6126 8.45135 24.8046C8.74432 24.3947 10.2187 23.6812 10.7267 23.3266C12.5034 22.0865 14.3817 20.9358 16.2416 19.8218C16.7882 19.4977 17.2931 18.9862 17.8472 18.6663C20.266 17.27 22.5393 15.6563 24.9696 14.2728C25.6058 13.9099 26.3106 13.2631 26.972 12.9124C27.8801 12.4629 29.3606 11.5243 30.3913 11.4629C32.7759 11.3206 36.004 13.3097 38.0246 14.3596L43.7947 17.3279C44.9683 17.9454 49.238 19.7445 49.4213 20.8747C48.9717 22.0047 46.0452 23.7791 45.0067 24.5575C44.3207 25.0716 43.7239 25.6328 43.0018 26.1307C42.62 26.1284 42.36 26.4791 42.1694 26.7669C43.7922 28.0344 45.1125 29.8379 46.7899 31.2196C51.6617 35.2324 57.5429 38.9069 61.4028 43.9319C63.5098 46.6751 62.0357 49.8111 60.1691 52.1157C57.4207 55.509 54.1402 58.0512 50.4704 60.3812C49.4561 61.0377 47.5333 61.7867 46.7912 62.4963C48.1823 64.901 48.9806 67.2299 48.1057 70.0301C47.6957 71.3423 47.0318 72.1723 45.8655 72.8913C42.0598 75.2377 38.0083 72.2619 36.2538 68.8273C34.893 66.1635 34.4839 63.5308 34.5236 60.5797C34.5448 59.0072 34.4884 57.1794 36.0171 56.1657C39.0334 54.7809 40.7452 58.9828 41.815 60.8719C42.3962 61.898 44.1425 63.7044 44.8747 64.2715L44.9524 63.8837C44.2074 63.1 43.0084 61.3428 42.5693 60.9381C46.7167 59.3561 50.5243 56.9974 52.5203 52.7954C54.165 48.9549 54.0657 44.6055 52.5489 40.7442C49.9929 34.2372 44.036 32.022 37.7684 34.9276C36.8712 35.3435 34.6241 36.269 33.6548 36.2897C31.7102 36.2801 29.8324 35.5383 27.9051 35.2102C22.9925 34.3743 19.0757 35.9117 16.1815 39.9878C13.2881 44.0631 12.7355 49.3916 14.5142 54.0534C15.511 56.6659 18.233 59.1523 20.798 60.2474C22.2972 60.87 23.8581 61.332 25.4546 61.6256C25.0503 62.2827 23.434 63.9076 22.7844 64.3674C22.347 63.6586 21.4863 63.8414 20.657 63.6211L20.6621 63.5903C20.5282 63.3884 18.4228 62.738 18.0131 62.5504C13.6085 60.8013 4.22293 56.2285 3.09508 51.0352C1.99696 45.9787 15.0056 36.7336 17.6234 32.6677C18.2665 31.6688 19.2964 30.665 19.9793 29.6245L19.9523 29.5108L19.8949 29.5064C19.6986 29.7333 19.0256 30.3386 18.7623 30.043C18.7184 29.7623 19.2516 28.9484 19.4276 28.6327L19.3609 28.5107C19.2331 28.6017 18.462 29.8611 18.3343 30.0633C15.494 29.0873 13.5052 28.0815 10.7907 26.9729C10.3 26.6854 9.83452 26.4837 9.27034 26.3985Z" fill="#012A8A"/>
<path d="M9.27034 26.3985C8.54208 26.1989 7.87388 25.6126 8.45135 24.8046C8.74431 24.3947 10.2187 23.6812 10.7267 23.3266C12.5034 22.0865 14.3817 20.9358 16.2416 19.8218C16.7881 19.4977 17.2931 18.9862 17.8472 18.6663C20.266 17.27 22.5393 15.6563 24.9696 14.2728C25.6058 13.9099 26.3106 13.2631 26.972 12.9124C27.8801 12.4629 29.3606 11.5243 30.3913 11.4629C32.7759 11.3206 36.004 13.3097 38.0246 14.3596L43.7947 17.3279C44.9683 17.9454 49.238 19.7445 49.4213 20.8747C48.9717 22.0047 46.0452 23.7791 45.0067 24.5575C44.3207 25.0716 43.7239 25.6328 43.0018 26.1307C42.62 26.1284 42.36 26.4791 42.1694 26.7669C41.4913 26.2075 40.7433 25.5627 40.0244 25.0654C35.8389 22.1699 29.4098 22.3729 25.2554 25.2117C24.6956 25.5943 24.1446 25.9475 23.5599 26.2785C23.246 26.6 22.6355 27.0313 22.2613 27.3573C21.4582 28.0691 20.6963 28.826 19.9793 29.6245L19.9523 29.5108L19.8949 29.5064C19.6986 29.7333 19.0256 30.3386 18.7623 30.043C18.7184 29.7623 19.2515 28.9484 19.4276 28.6327L19.3609 28.5107C19.2331 28.6017 18.462 29.8611 18.3343 30.0633C15.494 29.0873 13.5052 28.0815 10.7907 26.9729C10.3 26.6854 9.83452 26.4837 9.27034 26.3985Z" fill="#012A8A"/>
<path d="M24.7602 23.6711C28.8227 21.2973 31.5846 20.555 36.424 21.6795C37.9626 22.037 40.595 23.4179 41.7475 24.549C42.1017 24.8966 42.5928 25.678 43.0018 26.1307C42.62 26.1284 42.36 26.4791 42.1694 26.7669C41.4913 26.2075 40.7433 25.5627 40.0244 25.0654C35.8389 22.1699 29.4098 22.3729 25.2554 25.2117C24.6956 25.5942 24.1446 25.9475 23.5599 26.2785C23.7752 25.6108 26.2251 24.7301 26.573 23.9681C26.7144 23.6582 26.5956 23.4244 26.49 23.0947C25.8729 23.0217 25.3249 23.7468 24.7602 23.6711Z" fill="#FDD995"/>
<path d="M24.7602 23.6711C25.3249 23.7469 25.8729 23.0217 26.49 23.0947C26.5956 23.4244 26.7144 23.6582 26.573 23.9681C26.2251 24.7301 23.7752 25.6108 23.5598 26.2785C23.246 26.6 22.6355 27.0313 22.2612 27.3573C21.4582 28.0691 20.6963 28.826 19.9793 29.6245L19.9523 29.5108L19.8949 29.5064C19.6986 29.7333 19.0256 30.3386 18.7623 30.043C18.7184 29.7623 19.2515 28.9484 19.4276 28.6327L19.3609 28.5107C19.9982 27.1353 23.4224 24.2443 24.7602 23.6711Z" fill="#FEDA93"/>
<path d="M44.9524 63.8837C45.1977 64.0759 45.5721 64.3138 45.657 64.5933L45.5701 64.6426C45.2402 64.539 45.159 64.4716 44.8747 64.2714L44.9524 63.8837Z" fill="#E6E6EF"/>
<path d="M65.5763 4.26081C65.6654 4.24959 65.7548 4.24029 65.8444 4.23293C74.0605 3.58024 82.4361 8.85493 83.2189 17.4873C83.6671 22.4302 81.7366 26.8136 77.9543 29.9391C74.8342 32.5172 71.8673 33.2382 67.8877 33.5358C66.9423 34.5867 66.15 35.4003 65.1038 36.3364C64.0284 37.2293 61.2446 38.4858 59.9496 37.7225C59.4728 36.9605 60.8996 35.864 61.2169 34.7845C61.5078 33.7948 61.4888 33.8425 61.5709 32.7921C57.7432 31.5307 54.2805 28.9281 52.485 25.2823C51.7769 23.8447 51.1981 22.5507 51.0177 20.9504C50.5631 17.0633 51.6692 13.1548 54.0932 10.0824C56.8927 6.58627 61.2086 4.74447 65.5763 4.26081Z" fill="#E6E6EF"/>
<path d="M66.6434 7.99543C68.193 7.74216 68.9713 9.04638 69.6617 10.1599C70.5154 11.5367 71.2394 12.9349 72.0213 14.3486L75.3216 20.1982C76.0894 21.5527 76.9161 22.731 77.6198 24.174C78.2513 25.4689 77.8906 27.1288 76.3345 27.4587C75.4365 27.649 73.9957 27.5587 73.0316 27.5577L67.6113 27.5506C64.6467 27.5459 61.6504 27.6178 58.693 27.5239C55.9686 27.4373 55.9906 25.1907 57.1016 23.3001C59.8611 18.6044 62.389 13.777 65.2507 9.13979C65.608 8.56075 66.0716 8.30508 66.6434 7.99543Z" fill="#F9C432"/>
<path d="M66.6254 13.5066C67.7419 13.3996 67.8906 13.6042 68.5046 14.4646C68.5786 16.0376 68.2777 18.6081 68.1459 20.237C68.1081 20.7051 67.9341 20.9093 67.5738 21.1615C67.4651 21.1801 67.3562 21.1959 67.246 21.2013C66.9219 21.2174 66.5433 21.2012 66.3006 20.9534C65.7739 20.4155 65.7351 15.5138 65.7449 14.5078C66.0736 14.0366 66.216 13.8993 66.6254 13.5066Z" fill="#012A8A"/>
<path d="M66.9648 22.251C68.6972 22.3547 69.2165 24.6139 67.3881 25.3841C65.2979 25.3588 64.9009 23.3149 66.9648 22.251Z" fill="#012A8A"/>
<path d="M22.7844 64.3674L22.7444 64.5163L22.8049 64.6167C23.0289 64.5682 23.5342 64.1938 23.7355 64.0457C24.392 63.5679 24.9771 62.9992 25.4734 62.3567C26.7953 60.6203 29.2132 54.7473 32.2618 56.1633C33.7917 56.8739 34.0557 58.994 34.0527 60.5452C34.0752 63.3672 33.413 66.1526 32.1231 68.6628C31.0511 70.7735 29.2804 72.604 26.9818 73.3098C24.9044 73.9477 24.3294 73.9913 22.3309 72.9705C20.769 72.1726 20.3248 71.5398 19.7419 69.8947C19.0499 67.9418 19.7175 65.4141 20.657 63.6211C21.4863 63.8414 22.347 63.6586 22.7844 64.3674Z" fill="#012A8A"/>
<path d="M32.581 68.9938C33.1953 67.8599 33.9784 65.9306 34.1908 64.6525C34.4454 65.473 35.2643 68.2299 35.5992 68.8709C35.8314 69.2142 36.3474 70.0587 36.5709 70.2881C36.9626 70.6397 37.2077 71.1765 37.5657 71.5765C38.6844 72.8262 40.2725 73.813 41.9097 74.1836C40.5371 76.2523 38.1403 79.8952 35.012 78.0484C34.2106 77.5753 33.951 75.805 33.7182 74.9074C33.6074 75.7017 33.5554 76.4008 33.1532 77.1139C31.5931 79.8797 28.3108 78.1943 26.8628 76.2853C26.3959 75.6699 26.0183 74.959 25.5872 74.318C27.8975 73.8604 30.3515 72.4726 31.5724 70.4149C31.6285 70.2547 32.4254 69.2044 32.581 68.9938Z" fill="#012A8A"/>
<path d="M32.581 68.9938C33.1953 67.8599 33.9784 65.9306 34.1908 64.6525C34.4454 65.473 35.2643 68.2299 35.5992 68.8709C35.8314 69.2142 36.3474 70.0587 36.5709 70.2881C34.925 72.0027 33.5531 72.4322 31.7224 70.5797C31.6699 70.5271 31.6198 70.4721 31.5724 70.4149C31.6285 70.2547 32.4254 69.2044 32.581 68.9938Z" fill="#F9C432"/>
<path d="M32.581 68.9938C33.1953 67.8599 33.9784 65.9306 34.1908 64.6525C34.4454 65.473 35.2643 68.2299 35.5992 68.8709C35.0832 69.1708 34.7975 69.4683 34.1752 69.7825C33.6135 69.5895 33.1021 69.2813 32.581 68.9938Z" fill="#012A8A"/>
<path d="M43.5943 40.5049C44.6186 40.3885 46.2035 40.7985 46.933 41.4702C49.4629 43.7998 50.0085 47.27 47.6714 49.9652C46.5281 51.2837 45.8238 51.6218 44.1098 51.784C43.1387 51.9547 41.8063 51.5242 41.0338 50.9689C36.7988 47.9249 38.4201 41.2688 43.5943 40.5049Z" fill="#012A8A"/>
<path d="M44.1637 42.0086C44.7114 42.0977 45.5939 42.7195 45.8368 43.2274C46.3221 44.2422 45.4919 45.1919 44.6051 45.5943C43.2764 45.7065 43.0172 44.9849 42.5972 43.9005C42.9297 42.9062 43.361 42.6277 44.1637 42.0086Z" fill="#FDFDF7"/>
<path d="M45.6313 47.7701C46.9159 47.662 47.4423 48.9302 46.2372 49.6679C44.7659 49.7544 44.6382 48.7134 45.6313 47.7701Z" fill="#FDFDF7"/>
<path d="M23.7707 41.788C26.5291 41.7423 28.7732 43.7316 29.2702 46.4201C29.5616 47.9518 29.2264 49.5365 28.3396 50.8191C27.4301 52.1147 26.003 52.7545 24.4917 53.021C21.4251 53.1303 19.4216 51.8095 18.9249 48.6255C18.4218 45.4007 20.4769 42.2878 23.7707 41.788Z" fill="#012A8A"/>
<path d="M25.0773 43.5348C25.9556 43.5088 26.6924 44.1924 26.7321 45.0703C26.7718 45.9481 26.0997 46.6954 25.2225 46.7487C24.6429 46.7838 24.0893 46.5039 23.774 46.0163C23.4587 45.5286 23.4307 44.9089 23.7007 44.3949C23.9707 43.8807 24.4968 43.5521 25.0773 43.5348Z" fill="#FDFDF7"/>
<path d="M21.9783 49.3369C23.3488 49.6891 23.1779 51.1196 21.9869 51.3553C20.731 50.9816 20.3435 49.7551 21.9783 49.3369Z" fill="#FDFDF7"/>
<path d="M8.83085 30.899C9.28349 30.9397 9.801 30.9703 10.2394 31.0686C11.2864 31.7407 11.1517 32.5687 10.7328 33.5705C10.8255 33.7754 10.9101 33.9839 10.9863 34.1955C11.4502 35.5249 11.6407 37.5591 11.017 38.873C9.57765 39.8318 8.3095 39.4847 6.84762 38.8553C6.55279 38.7283 6.18065 38.5019 6.08501 38.1766C5.56959 36.4867 7.04988 34.8833 7.48185 33.3864C7.832 32.173 7.15864 31.4859 8.83085 30.899Z" fill="#F9C432"/>
<path d="M66.15 49.9508C67.2897 49.802 69.8792 50.0609 71.0481 50.2441C72.3599 50.4498 72.7631 52.1161 71.2736 52.8859C69.8538 52.984 68.4995 52.6686 67.1178 52.5696C65.4049 52.447 64.5782 50.941 66.15 49.9508Z" fill="#F9C432"/>
<path d="M63.7796 55.3564C64.4175 55.2926 64.8209 55.4247 65.3111 55.871C66.1597 56.689 67.2352 57.5164 67.9446 58.4467C68.6529 59.3754 68.3799 60.2211 67.4898 60.815C66.5049 60.9856 65.7368 60.4102 65.2223 59.6173C64.4473 58.4231 61.277 56.5722 63.7796 55.3564Z" fill="#F9C432"/>
<path d="M69.0121 42.4583C69.5294 42.3982 70.1923 42.4965 70.4819 42.982C71.3445 44.428 67.8563 46.3509 66.8734 46.8889C65.7947 47.2766 64.9578 46.5766 65.2614 45.6234C65.608 44.5354 68.0495 42.936 69.0121 42.4583Z" fill="#F9C432"/>
<path d="M18.5703 53.0541C19.4645 52.9963 20.6733 53.0859 21.4203 53.5696C23.2344 54.7439 22.4287 55.6604 20.7062 55.92C16.899 56.2129 15.6203 53.4706 18.5703 53.0541Z" fill="#F9C432"/>
<path d="M49.287 51.0752C52.408 50.7866 51.4751 53.6818 48.1834 54.2377C44.7498 54.5838 45.4999 51.5163 49.287 51.0752Z" fill="#F9C432"/>
<path d="M9.27034 26.3984C9.83452 26.4837 10.3 26.6854 10.7907 26.9728C10.6288 27.3455 10.2123 30.6913 10.2394 31.0686C9.801 30.9703 9.28348 30.9397 8.83085 30.899C8.82741 29.983 9.13361 27.3049 9.27034 26.3984Z" fill="#FEDA93"/>
</svg>
