<svg width="90" height="88" viewBox="0 0 90 88" fill="none" xmlns="http://www.w3.org/2000/svg">
<path d="M40.8201 29.3062C41.9458 28.3588 43.0305 27.9249 44.311 27.3145C47.2521 25.9129 49.5838 25.3552 52.9161 25.5897C55.482 25.7702 58.2032 27.2524 60.2072 28.819C60.5599 29.0946 61.224 29.9641 61.595 30.3187C62.982 32.0273 63.4556 33.0316 64.477 34.9009C67.7531 40.8964 73.3216 45.4665 76.7654 51.3649C77.2079 52.123 77.7055 52.9949 77.9807 53.8208C78.2293 54.5623 78.3206 55.3476 78.2488 56.1265C77.7141 61.4526 67.101 65.631 62.7327 67.3467C62.0454 67.6166 58.5167 68.5556 58.2966 68.8337C59.5747 70.9625 60.6649 71.6881 61.1578 74.4271C61.7449 77.6905 61.3686 79.8968 57.7485 80.6982C55.7285 80.246 55.0621 79.4303 53.8981 77.8728C53.5129 78.7967 52.3443 80.9422 51.788 81.7706C49.6571 84.9435 45.5793 85.3908 44.8666 80.7985C43.7767 86.1274 39.2835 84.4525 36.9932 81.0798C34.5982 77.5527 33.3991 74.4806 32.801 70.275C31.9411 70.2958 31.2648 70.3355 30.4092 70.4206C31.5858 69.5069 32.4568 68.5897 33.4142 67.4658C33.6517 67.0652 33.8912 66.6657 34.1329 66.2677C34.6241 65.3507 35.1499 64.4512 35.5615 63.496C38.7575 65.3892 46.084 66.8341 49.7823 66.8653C54.3333 66.9037 60.3725 65.5803 63.6755 62.2014C72.4328 53.2428 67.5122 36.2709 53.2059 39.521C49.4245 40.38 47.5399 39.2387 44.4673 37.3415C35.4354 32.7529 27.1087 40.8301 26.9715 49.4724C25.5952 48.7211 25.2277 49.0283 24.1074 50.0695L23.4832 48.8673C22.7349 48.353 22.416 48.2041 21.5385 47.9824C20.7253 48.1973 20.0558 48.5199 19.4526 49.1162C16.8834 43.0958 21.5064 41.1885 25.8097 38.4795C30.7424 35.3742 36.4044 33.1119 40.8201 29.3062Z" fill="#022B8D"/>
<path d="M34.1329 66.2677L34.1931 66.3175C34.7634 66.7848 35.7432 67.2626 36.2178 67.7416C37.4656 69.001 38.737 70.1574 40.0606 71.3337C41.2999 72.435 42.7794 73.9998 44.2026 74.8547C44.9183 74.6466 45.6318 74.1618 46.3062 73.8282C48.5145 72.7359 50.3615 71.4423 52.6141 70.412C54.3717 69.6083 55.6817 69.5631 57.4483 68.9578C57.526 68.9312 57.5264 68.9293 57.6123 68.9188C57.9937 69.0104 57.8796 68.9849 58.2966 68.8337C59.5747 70.9626 60.6649 71.6881 61.1578 74.4271C61.7449 77.6905 61.3686 79.8968 57.7485 80.6982C55.7285 80.246 55.0621 79.4303 53.8981 77.8728C53.5129 78.7967 52.3443 80.9422 51.788 81.7706C49.6571 84.9436 45.5793 85.3908 44.8666 80.7985C43.7767 86.1274 39.2835 84.4525 36.9932 81.0798C34.5982 77.5527 33.3991 74.4806 32.801 70.275C31.9411 70.2958 31.2647 70.3355 30.4092 70.4206C31.5858 69.5069 32.4568 68.5897 33.4142 67.4658C33.6517 67.0652 33.8912 66.6658 34.1329 66.2677Z" fill="#022B8D"/>
<path d="M34.1329 66.2677L34.1931 66.3175C34.7634 66.7848 35.7432 67.2626 36.2178 67.7416C37.4656 69.001 38.737 70.1574 40.0606 71.3337C41.2999 72.435 42.7794 73.9998 44.2025 74.8547C44.9183 74.6466 45.6318 74.1618 46.3062 73.8282C48.5145 72.7359 50.3615 71.4423 52.6141 70.412C54.3717 69.6083 55.6817 69.5631 57.4483 68.9578C57.526 68.9312 57.5264 68.9293 57.6123 68.9188C57.1782 70.0835 55.7008 70.66 54.7029 71.257C53.1998 72.1563 51.6889 73.0114 50.1438 73.8414C48.5545 74.6952 47.1245 75.7408 45.4842 76.524C44.3908 77.0462 43.8993 77.0503 42.8532 76.3483C41.706 75.5783 40.8044 74.6329 39.7771 73.7313C37.6173 71.6981 35.4254 69.6482 33.4142 67.4658C33.6517 67.0652 33.8912 66.6658 34.1329 66.2677Z" fill="#FEDA90"/>
<path d="M40.3104 28.7306C38.8285 27.7171 37.5198 26.6845 36.1879 25.5406C35.1239 24.6792 31.3587 22.5105 34.2257 21.3103C39.1456 19.2508 44.1286 17.3503 49.1715 15.5708C51.3666 14.7963 54.4346 13.148 56.8517 14.0108C57.5222 14.2501 58.812 15.4144 59.4166 15.8983L62.8594 18.6667L70.1222 24.549C71.0131 25.2748 72.0454 25.9315 72.8543 26.7128C73.5136 27.3496 75.3833 28.119 74.3725 29.1807C74.2556 29.3036 74.1472 29.4394 74.0328 29.566C73.96 28.8257 73.5368 27.5881 72.6279 28.6033C72.2693 29.0039 72.339 29.5839 72.3465 30.1079C70.9912 30.3516 69.4141 31.0279 68.0753 31.4374C66.8399 31.8153 65.7235 32.4258 64.4383 32.7073C64.2745 31.4756 63.6255 30.2061 62.8812 29.223C62.5538 29.1924 60.4031 26.8641 59.9115 26.5362C59.3062 26.1325 58.5955 25.6909 57.9266 25.4242C57.8174 25.5831 57.8242 25.9024 57.7773 25.9953C57.6181 26.3103 57.3115 26.165 57.3019 26.4993C58.0099 27.397 61.28 28.7376 61.595 30.3187C61.224 29.9641 60.5599 29.0947 60.2072 28.819C58.2031 27.2524 55.482 25.7702 52.9161 25.5897C49.5838 25.3553 47.252 25.9129 44.311 27.3145C43.0305 27.9249 41.9457 28.3589 40.8201 29.3062L40.3104 28.7306Z" fill="#022B8D"/>
<path d="M40.3105 28.7306C41.0021 27.5557 42.938 26.2212 44.1241 25.6719C50.131 22.8896 57.3297 23.056 62.0028 28.2182C62.3264 28.5756 62.6085 28.7828 62.8813 29.223C62.5538 29.1924 60.4031 26.8641 59.9115 26.5362C59.3062 26.1325 58.5955 25.6909 57.9266 25.4242C57.8174 25.5831 57.8243 25.9024 57.7773 25.9953C57.6181 26.3103 57.3115 26.165 57.3019 26.4994C58.0099 27.397 61.28 28.7376 61.595 30.3188C61.224 29.9641 60.5599 29.0947 60.2072 28.819C58.2032 27.2524 55.482 25.7703 52.9161 25.5897C49.5838 25.3553 47.2521 25.9129 44.311 27.3146C43.0305 27.9249 41.9458 28.3589 40.8202 29.3062L40.3105 28.7306Z" fill="#FEDA90"/>
<path d="M11.4222 18.1753C12.6104 18.1502 16.084 17.6914 15.0306 20.2346C14.7807 20.8379 14.0905 20.9161 13.5023 21.0804C13.4185 21.2477 13.4182 21.7543 13.5964 21.8106C14.8388 22.2036 16.5532 22.545 17.5946 23.3566C19.9375 25.1825 21.6233 27.3351 21.9074 30.3738C22.2107 33.0557 21.6244 35.827 19.8834 37.9594C18.0511 40.1855 15.9092 41.4051 13.0829 41.7385C8.56092 42.0465 4.33033 39.4853 2.93005 35.0977C2.06409 32.3106 2.33351 29.2943 3.67971 26.7047C4.48194 25.1706 6.25878 23.573 7.78403 22.764C8.3465 22.4656 9.75176 22.0488 10.4056 21.8456C10.5084 21.6134 10.4748 21.4382 10.4577 21.1879C10.2273 20.9161 9.74033 21.1017 9.40836 20.7976C8.44243 19.9131 8.30884 18.9203 9.65036 18.3607C10.2725 18.1012 10.7569 18.1725 11.4222 18.1753Z" fill="#022B8D"/>
<path d="M11.1788 24.4303C15.2536 23.8808 18.9942 26.7602 19.5056 30.8398C20.017 34.9194 17.1027 38.633 13.0184 39.1062C8.98786 39.5732 5.33367 36.7055 4.82902 32.6795C4.32436 28.6535 7.15771 24.9726 11.1788 24.4303Z" fill="#FEFDF7"/>
<path d="M11.9468 26.6908C12.959 26.8058 12.8556 27.656 12.8477 28.4689C12.8397 29.283 12.7883 30.0401 12.8569 30.8564C13.6739 30.9036 16.5642 30.4863 15.9319 32.0444C15.811 32.3421 15.605 32.4239 15.3184 32.4855C11.0778 32.5045 11.2072 33.9743 11.4203 28.4237C11.4489 27.6797 11.2869 27.1709 11.9468 26.6908Z" fill="#022B8D"/>
<path d="M21.3225 48.956C21.4109 48.9581 21.5489 48.9874 21.6267 49.0207C24.769 50.3689 23.5905 55.3504 25.0342 58.2356C25.2417 56.2099 23.6638 52.2869 24.7642 50.5917C25.9133 49.3213 27.5281 50.8155 27.7832 51.9324C28.5404 55.2473 29.6036 58.8799 29.8238 62.242C30.0046 62.2219 30.7136 61.4092 31.1871 61.1775C31.998 60.7809 32.0843 60.7333 32.9509 60.5829C33.3346 60.7423 34.1099 61.0855 34.3038 61.4328C35.7092 63.9513 31.9191 68.3534 30.1318 69.6984C28.0175 71.2894 24.9774 71.7424 22.5816 71.3972C21.9309 71.2841 21.2899 71.1209 20.6644 70.9089C17.3626 69.7754 15.3653 66.8223 14.5808 63.5493C14.0502 61.336 13.0494 58.2239 13.8209 55.9973C16.5991 53.9207 16.5661 57.6295 17.2136 59.2919C17.3413 59.6198 17.6111 59.9509 17.8323 60.23C17.7207 57.8364 16.0536 54.8849 16.5046 52.3348C16.618 51.8267 16.8678 51.4783 17.2893 51.2042C18.0057 50.7383 18.9128 50.9454 19.2349 51.7898C19.8554 53.4171 20.0713 55.3189 20.6127 56.9954C20.7751 57.4986 20.8139 57.9726 21.0828 58.4575L21.1818 58.4758C21.6043 57.338 19.8306 52.3854 19.8768 50.9315C19.9031 50.1029 20.7181 49.4665 21.3225 48.956Z" fill="#022B8D"/>
<path d="M57.2633 46.5994C60.279 46.5783 62.755 48.9781 62.8282 51.9929C62.9013 55.0077 60.5445 57.5248 57.5315 57.6499C55.5356 57.7327 53.6503 56.7323 52.6001 55.0332C51.5499 53.3339 51.4981 51.2004 52.4648 49.4522C53.4313 47.7041 55.2658 46.6135 57.2633 46.5994Z" fill="#022B8D"/>
<path d="M56.074 48.0405C56.4768 48.0127 56.7972 48.0429 57.157 48.2417C57.5083 48.44 57.7661 48.7701 57.8736 49.1588C58.0019 49.626 57.938 50.125 57.6963 50.5449C57.3977 51.0714 57.0416 51.2329 56.4896 51.389C54.2493 51.3406 54.0111 48.7356 56.074 48.0405Z" fill="#FEFDF7"/>
<path d="M58.5153 54.219C59.8728 54.0164 60.6836 55.4413 59.0639 56.0104C57.9463 56.3237 57.4105 55.0332 58.5153 54.219Z" fill="#FEFDF7"/>
<path d="M36.5865 42.7296C37.7361 42.5577 38.9087 42.8151 39.8805 43.4528C44.3234 46.4271 43.1459 52.9627 37.8324 53.9498C36.5808 54.111 35.1075 53.8573 34.0501 53.144C33.0944 52.4805 32.0187 50.6187 31.8731 49.4621C31.4958 46.4653 33.6023 43.2722 36.5865 42.7296Z" fill="#022B8D"/>
<path d="M36.5609 44.3664C38.6272 44.6401 38.6497 47.2035 36.3769 47.7399C35.6977 47.5241 35.4469 47.3052 34.9287 46.8506C34.5818 45.3564 35.0408 44.7172 36.5609 44.3664Z" fill="#FEFDF7"/>
<path d="M34.1916 49.5651C35.2131 49.5458 35.8965 50.3079 34.7768 51.0941C33.7372 51.5678 33.3453 50.2897 34.1916 49.5651Z" fill="#FEFDF7"/>
<path d="M72.3465 30.1079C72.339 29.5839 72.2693 29.0039 72.6279 28.6033C73.5368 27.5881 73.96 28.8257 74.0328 29.566C73.8649 30.1669 74.0084 33.744 73.9987 34.6508C74.6812 34.9391 74.9433 35.242 75.2458 35.942C75.2345 36.5332 75.2216 36.677 75.0785 37.2394C75.5587 38.5143 76.6398 41.1586 76.1656 42.4328C75.522 44.1627 71.1619 44.3915 70.7054 42.41C70.3606 40.9135 71.0946 38.611 71.8208 37.3118C70.8075 36.2557 71.8818 35.6042 72.5148 34.5891C72.5041 33.1817 72.513 31.5048 72.3465 30.1079Z" fill="#F7C12D"/>
<path d="M60.5664 58.2125C62.3566 58.2351 64.7045 58.9291 62.6841 60.9219C62.1099 61.0732 61.5924 61.116 61.0041 61.1803C60.1136 61.1911 59.1676 61.2612 58.4263 60.7166C57.4365 59.9895 57.7924 58.986 58.8071 58.5399C59.4348 58.2641 59.9045 58.2699 60.5664 58.2125Z" fill="#F7C12D"/>
<path d="M30.0241 52.5151C32.2449 52.371 35.9073 54.9902 32.8925 56.0446C30.8839 56.011 26.8763 53.7365 30.0241 52.5151Z" fill="#F7C12D"/>
<path d="M23.1339 19.4286C25.1393 19.558 24.1666 21.4657 23.3004 22.3146C22.7803 22.8243 22.2178 23.913 21.6467 24.2499C19.1506 24.1857 21.5586 21.1311 22.0908 20.242C22.357 19.7975 22.6471 19.5849 23.1339 19.4286Z" fill="#F7C12D"/>
<path d="M26.0082 24.5908C27.4685 24.6772 27.323 25.6822 26.6729 26.6214C25.908 26.9691 24.7069 27.4636 23.9233 27.6899C20.6652 26.7132 24.7331 24.9028 26.0082 24.5908Z" fill="#F7C12D"/>
<path d="M24.6786 29.92C25.6388 29.9403 27.9966 29.9094 28.1109 31.1222C27.966 31.5649 27.6268 31.7972 27.2371 32.0069C26.4201 31.8876 25.5802 31.8871 24.7832 31.7C23.7458 31.4566 23.7345 30.3238 24.6786 29.92Z" fill="#F7C12D"/>
</svg>
