<svg width="90" height="88" viewBox="0 0 90 88" fill="none" xmlns="http://www.w3.org/2000/svg">
<path d="M18.6089 34.5455C19.1271 33.9475 19.8303 32.4941 20.3967 31.785C22.4197 29.2523 24.7434 27.3424 27.7449 26.1362C30.5855 24.9946 35.0505 25.1497 37.7962 26.3612C38.7 26.914 39.6822 27.2397 40.6488 27.6622C41.4651 28.0191 42.3115 28.656 43.139 28.9577C46.3967 30.1453 49.3647 31.3016 52.4896 32.8419C56.6204 34.8779 61.4085 36.6571 64.5752 40.1393C64.7986 40.3879 65.2265 41.5799 65.31 41.9673C66.0581 45.7811 63.3608 49.2535 61.6695 52.44C61.4408 52.871 60.088 54.5743 60.041 54.7266C59.6761 55.9096 53.2713 62.7435 53.2535 62.8114C53.9021 64.5013 54.8302 65.9826 55.3245 67.7498C56.326 71.33 54.8961 75.4617 51.2571 76.8779L51.2218 76.9403C50.9391 77.4467 50.7486 78.0182 50.4584 78.4964C49.4872 80.0972 47.7897 82.2488 45.8665 82.736C42.915 83.4837 41.7915 81.8174 41.6014 79.2425C41.1332 81.5796 40.044 83.3615 37.2721 82.8342C35.1757 82.4354 33.5463 80.2807 32.4746 78.5623C32.3996 78.443 32.3266 78.3223 32.2555 78.2005C33.4499 77.2903 34.7017 76.461 35.5155 75.1884C36.029 74.3853 36.4728 73.5567 37.036 72.7903L37.0004 72.0493C35.3721 74.6979 33.7388 77.2691 30.6469 78.4702C27.8823 79.5442 24.6648 78.0711 23.7786 75.1952C22.9653 72.5553 24.1983 70.4389 25.4117 68.1771C21.16 67.8929 10.211 65.779 8.15465 60.9264C7.81351 60.1214 7.92513 58.1658 8.19917 57.2861C10.4088 50.1935 15.8192 44.4769 17.4295 37.1381C17.5439 36.6167 18.3526 35.0492 18.6089 34.5455Z" fill="#012B8B"/>
<path d="M30.2317 65.4137C26.6527 65.0303 23.6237 63.8065 21.1916 61.0507C19.8075 59.4824 18.4742 56.1421 18.1033 54.0972C17.4456 50.4697 18.5536 46.768 20.6628 43.8089C21.3411 42.8295 22.0756 42.3292 23.0111 41.6549C25.734 39.6919 28.1701 39.3361 31.443 39.1681C32.2783 39.0523 34.2832 39.131 34.9925 38.6959C38.6292 36.465 39.8735 33.7437 44.5074 32.9991C46.9688 32.6166 49.482 33.2152 51.5067 34.6662C54.8531 37.087 57.4838 41.658 58.1002 45.6889C59.2224 53.0289 53.2335 59.5917 46.9911 62.437C44.8795 63.3995 42.6805 64.5134 40.3953 64.8624L40.359 64.7492L40.1833 64.838C39.8925 64.6352 39.7909 64.5369 39.5396 64.2836C40.5506 63.3335 42.4413 61.885 41.1266 60.4191C40.7939 60.0481 40.2587 59.9062 39.7727 59.901C37.5704 59.9339 34.4609 61.76 32.9068 63.2332C32.1203 63.9786 31.2993 65.1496 30.5491 65.8519C30.365 65.638 30.4787 65.5841 30.2317 65.4137Z" fill="#FEFDF7"/>
<path d="M47.4399 38.9568C53.8919 38.4278 56.1232 48.674 49.1824 50.1798C41.9106 50.6683 40.9729 39.87 47.4399 38.9568Z" fill="#012B8B"/>
<path d="M48.4261 40.3859C49.1334 40.3639 49.8843 40.884 50.1813 41.5179C50.3789 41.9373 50.3935 42.42 50.2216 42.8507C50.0204 43.3609 49.6372 43.7238 49.143 43.9453C48.4334 43.9482 47.8288 43.8169 47.4024 43.1863C47.1528 42.8104 47.0621 42.3509 47.1504 41.9084C47.3178 41.0786 47.7829 40.8162 48.4261 40.3859Z" fill="#E3E4F0"/>
<path d="M50.6021 45.5361C52.1316 45.4601 51.707 46.9984 50.7802 47.7331C49.2377 47.5016 49.4694 46.2442 50.6021 45.5361Z" fill="#E3E4F0"/>
<path d="M29.442 46.093C35.6548 46.3607 37.7717 55.2373 31.0311 56.6189C24.0341 57.4873 23.009 46.9844 29.442 46.093Z" fill="#012B8B"/>
<path d="M30.6883 47.6612C31.566 47.5417 32.3759 48.1523 32.5027 49.029C32.6294 49.9057 32.0256 50.7207 31.15 50.8546C30.264 50.9902 29.4374 50.3778 29.3092 49.4907C29.1809 48.6037 29.8002 47.7821 30.6883 47.6612Z" fill="#E3E4F0"/>
<path d="M28.4656 53.9881C28.9137 53.9134 29.3414 54.2038 29.4373 54.6478C29.5332 55.0918 29.2635 55.5329 28.8245 55.6498C28.5214 55.7305 28.1985 55.638 27.9842 55.4089C27.7698 55.1799 27.6989 54.8515 27.7996 54.5544C27.9002 54.2573 28.1562 54.0396 28.4656 53.9881Z" fill="#E3E4F0"/>
<path d="M26.7563 58.5432C27.7741 58.433 30.3275 58.5062 29.3074 60.4365C28.9368 61.1377 27.7152 61.3385 26.9656 61.4777C23.1656 61.8795 23.0346 59.1981 26.7563 58.5432Z" fill="#FAC64A"/>
<path d="M55.2462 47.6267C56.4362 47.5281 57.3396 48.0959 56.6903 49.3433C56.0945 50.4878 55.0045 50.9599 53.8728 51.3732C51.1997 52.1873 51.9365 48.3915 55.2462 47.6267Z" fill="#FAC64A"/>
<path d="M52.9021 63.3125C53.02 63.0412 53.0447 63.0135 53.2535 62.8114C53.9022 64.5013 54.8302 65.9826 55.3245 67.7498C56.326 71.33 54.8961 75.4617 51.2571 76.8779L51.2218 76.9403C50.9391 77.4467 50.7486 78.0182 50.4584 78.4964C49.4872 80.0972 47.7897 82.2488 45.8665 82.736C42.915 83.4837 41.7915 81.8174 41.6014 79.2424C41.1332 81.5796 40.044 83.3615 37.2721 82.8342C35.1757 82.4354 33.5463 80.2807 32.4746 78.5623C32.3996 78.443 32.3266 78.3223 32.2555 78.2005C33.4499 77.2903 34.7017 76.461 35.5155 75.1883C36.029 74.3853 36.4728 73.5567 37.036 72.7903L37.0004 72.0493C37.2061 71.4101 37.2085 71.4096 37.8468 71.1876L38.3203 71.3086C39.8818 71.9684 41.148 72.7 42.8562 73.3766C43.9911 72.6424 45.1002 71.2322 46.1016 70.4052C47.3671 69.3602 51.7527 63.4934 52.9021 63.3125Z" fill="#012B8B"/>
<path d="M42.8562 73.3766C43.9911 72.6424 45.1002 71.2322 46.1016 70.4052C47.3671 69.3601 51.7527 63.4934 52.9021 63.3125C52.925 63.8091 52.9601 64.2217 53.0142 64.7151C51.3978 67.9016 47.5526 71.6488 44.9872 74.1787C43.8686 75.2818 42.9887 76.0523 41.4757 75.0914C40.0862 74.2089 38.4299 73.6025 37.036 72.7903L37.0004 72.0493C37.2061 71.4101 37.2085 71.4096 37.8468 71.1876L38.3203 71.3086C39.8818 71.9684 41.148 72.7 42.8562 73.3766Z" fill="#FAC64A"/>
<path d="M39.5396 64.2836C39.7909 64.5369 39.8925 64.6351 40.1833 64.838L40.359 64.7492L40.3953 64.8624C40.6592 65.7097 41.0291 65.9543 41.0663 66.9526C41.1363 68.8358 40.0873 70.5432 38.3203 71.3086L37.8468 71.1876C38.9885 70.4548 40.1966 69.5262 40.4735 68.1166C40.6738 67.0969 40.541 65.9401 40.0189 65.0031C39.9132 64.8135 39.6108 64.7219 39.416 64.426L39.5396 64.2836Z" fill="#E3E4F0"/>
<path d="M30.2317 65.4136C30.4787 65.584 30.365 65.638 30.5491 65.8519C30.0866 66.4887 28.3021 68.8793 27.494 68.8422C27.5378 68.2568 29.96 66.4464 30.2317 65.4136Z" fill="#E3E4F0"/>
<path d="M66.6187 1.84193C70.129 1.53503 72.5642 3.14137 74.7845 5.66423C78.0264 5.64808 80.436 6.86087 82.3269 9.60533C83.7684 11.6976 83.7298 14.2311 83.2129 16.641C83.6847 17.5072 84.0007 18.31 84.2127 19.28C84.7069 21.5621 84.2737 23.947 83.0084 25.9095C81.533 28.1924 78.0179 30.1239 75.3009 30.0933C74.5696 30.0852 72.4352 29.9741 71.9234 30.1966C70.2941 30.9048 69.4354 32.1274 67.4985 32.539C64.0555 33.0203 61.9929 31.9963 59.2461 30.0212C58.667 29.9594 58.0399 29.9072 57.4701 29.8079C53.13 29.0514 49.149 25.0899 49.5633 20.4775C49.7016 18.9375 50.2839 17.8222 50.9156 16.4619C50.8093 15.6319 50.7307 14.8553 50.688 14.0156C50.4925 10.166 53.2043 7.08575 56.7853 6.03944C57.5955 5.80268 58.4369 5.77098 59.2912 5.7587C59.3679 5.66719 59.4449 5.57612 59.5226 5.48549C61.6506 3.00249 63.3892 2.08899 66.6187 1.84193Z" fill="#E3E4F0"/>
<path d="M66.7902 6.62714C66.922 6.60857 67.2494 6.59148 67.3683 6.64705C69.1601 7.52387 70.8625 8.82251 72.4631 10.0083C73.4968 10.7741 76.278 12.3328 76.8774 13.3268C76.9791 14.6248 73.7253 14.2102 72.8753 14.2026L67.3708 14.1915L60.8669 14.1954C59.8214 14.1959 58.7414 14.2458 57.7074 14.122C57.3164 14.0752 57.1484 13.4729 57.2988 13.2994C58.3864 12.0442 60.1787 11.0758 61.5355 10.1184C63.0912 9.02051 65.0629 7.35154 66.7902 6.62714Z" fill="#012B8B"/>
<path d="M59.1021 24.1869C64.4457 24.0862 69.8772 24.1767 75.2253 24.2134C76.3301 24.221 77.0319 24.8448 76.375 25.8673C76.19 26.1551 75.4868 26.1236 75.1746 26.1297L64.1088 26.1317C62.3274 26.1347 60.1425 26.1873 58.3915 26.0916C57.0602 26.0187 56.7736 24.2458 59.1021 24.1869Z" fill="#012B8B"/>
<path d="M71.1507 15.4906C71.9667 15.4611 74.7621 15.1471 75.0443 16.0255C74.9781 16.464 74.6763 16.6652 74.3412 16.9191L74.3454 21.8056C74.5641 22.0482 74.6344 22.1239 74.7983 22.406C74.8209 22.7596 74.8167 22.6539 74.6437 22.9988C73.9392 23.0285 73.2255 23.069 72.5214 23.0803C71.9716 23.0892 71.2486 23.1804 71.048 22.574C71.0963 22.2369 71.2504 22.0887 71.4623 21.8206C71.5466 20.2887 71.4908 18.4526 71.4801 16.8975C70.8748 16.5711 70.3671 15.9976 71.1507 15.4906Z" fill="#012B8B"/>
<path d="M59.4819 15.4855C60.4378 15.4623 62.675 15.2467 63.3139 15.8312C63.5041 16.3781 63.0746 16.6527 62.651 16.9181L62.6433 21.8506C62.869 22.1024 63.0154 22.2276 63.0964 22.5557C63.0287 22.8767 63.0869 22.7554 62.8521 23.0118C62.096 23.0348 59.9259 23.1712 59.3773 22.8624C59.0727 22.2444 59.6985 22.2115 59.7474 21.6921C59.891 20.1628 59.8187 18.4314 59.8109 16.8889C59.1901 16.5846 58.6223 15.9473 59.4819 15.4855Z" fill="#012B8B"/>
<path d="M65.393 15.5065C66.1857 15.4669 66.9792 15.4461 67.7728 15.444C68.2262 15.447 68.7659 15.4908 69.0992 15.8251C69.2954 16.4203 68.8586 16.6707 68.4174 16.9641C68.4419 18.5207 68.5151 20.2972 68.4214 21.8332C68.7942 22.1961 69.0725 22.426 68.8157 22.9635C68.2279 23.0371 65.9201 23.1851 65.3661 22.89C65.1949 22.7987 65.2065 22.7101 65.1669 22.5429C65.2193 22.2588 65.3833 22.107 65.5707 21.8853C65.6519 20.0741 65.6462 18.7135 65.5735 16.896C64.9458 16.5488 64.5584 15.8927 65.393 15.5065Z" fill="#012B8B"/>
<path d="M6.81984 38.2068C6.28213 38.2704 5.49054 38.325 5.35432 37.6431C5.16282 36.6845 6.51058 35.2912 7.06429 34.5401L10.2101 30.2475C12.2223 27.4722 14.2178 24.6999 16.2864 21.9647C17.3578 20.5479 18.3362 19.0944 19.5771 17.8096C20.0846 17.2841 20.6854 16.818 21.4055 16.6365C22.1726 16.4433 22.9775 16.3894 23.7659 16.4025C26.089 16.4414 40.749 17.7503 41.8486 18.5251C42.0387 18.6591 42.2104 18.9501 42.2388 19.1775C42.3818 20.3206 38.95 24.5414 38.0913 25.596C37.9772 25.8625 37.8788 26.0821 37.7962 26.3612C35.0505 25.1497 30.5855 24.9946 27.7449 26.1362C24.7434 27.3424 22.4197 29.2523 20.3967 31.785C19.8302 32.4941 19.1271 33.9475 18.6089 34.5455C18.626 33.5272 20.087 32.8353 19.7622 31.8006C19.6463 31.4319 19.7053 31.3146 19.3707 31.0954C18.8295 31.367 18.2265 32.9593 17.5778 33.3727C16.771 34.7903 16.0958 36.775 16.0738 38.4206C14.2998 38.4174 12.5259 38.3987 10.7522 38.3643C10.1531 38.3484 8.83412 38.329 8.27555 38.2153C7.92996 38.0372 7.18827 38.0718 6.81984 38.2068Z" fill="#012B8B"/>
<path d="M17.5778 33.3727C17.9486 32.3632 19.4396 30.4597 20.1421 29.6115C22.607 26.6353 26.1962 24.4157 30.0746 24.0466C32.7005 23.7968 36.0197 23.9737 38.0913 25.596C37.9772 25.8625 37.8788 26.0821 37.7962 26.3612C35.0505 25.1497 30.5855 24.9946 27.7449 26.1362C24.7434 27.3424 22.4197 29.2523 20.3967 31.785C19.8302 32.4941 19.1271 33.9475 18.6089 34.5455C18.626 33.5272 20.087 32.8353 19.7622 31.8007C19.6463 31.4319 19.7053 31.3146 19.3707 31.0954C18.8295 31.367 18.2265 32.9593 17.5778 33.3727Z" fill="#FAC64A"/>
<path d="M7.34351 42.2914C8.10738 42.1882 7.91802 42.2367 8.5901 42.3113C8.71698 42.3584 8.84219 42.4099 8.96551 42.4656C10.1201 42.9969 9.70741 43.7136 9.98258 44.7587C10.0828 45.139 10.3728 45.6732 10.5178 46.1242C10.7348 46.7312 11.4648 49.0841 11.0877 49.6397C10.2517 50.8711 5.96952 51.5954 5.70936 49.4396C5.5904 48.4539 5.8937 45.9219 6.38606 45.1682C5.84061 43.562 5.97842 43.223 7.34351 42.2914Z" fill="#FAC64A"/>
<path d="M72.2874 32.4398C73.6932 32.1151 75.0964 32.9902 75.423 34.3955C75.7498 35.8008 74.8765 37.2052 73.4717 37.5337C72.0641 37.8629 70.6565 36.9877 70.3292 35.5797C70.0018 34.1717 70.879 32.7653 72.2874 32.4398Z" fill="#E3E4F0"/>
<path d="M68.4029 38.0738C69.0953 37.8499 69.8536 38.0872 70.2948 38.6658C70.736 39.2444 70.7641 40.0385 70.3649 40.6469C70.1554 40.9662 69.8454 41.2064 69.4838 41.3296C68.5822 41.6367 67.6029 41.1504 67.3028 40.2463C67.0026 39.3423 67.4966 38.3669 68.4029 38.0738Z" fill="#E3E4F0"/>
<path d="M6.81984 38.2068C7.18827 38.0719 7.92996 38.0372 8.27555 38.2153C8.35924 39.399 8.43274 41.156 8.5901 42.3113C7.91802 42.2367 8.10738 42.1882 7.34351 42.2914C6.97941 40.9833 7.09246 39.1957 6.81984 38.2068Z" fill="#FAC64A"/>
</svg>
