<svg width="81" height="76" viewBox="0 0 81 76" fill="none" xmlns="http://www.w3.org/2000/svg">
<path d="M35.1855 19.6694C33.8392 18.895 27.868 15.6914 27.2584 14.8386C27.1194 14.644 27.0863 14.3163 27.1356 14.0846C27.2251 13.6641 27.561 13.3756 27.9074 13.1539C28.5399 12.749 29.2771 12.4592 29.9396 12.0977C31.9135 11.0009 33.9042 9.93455 35.9107 8.89883C38.6837 7.4388 41.4437 5.94573 44.2748 4.59596C46.7697 3.40649 48.4394 2.07159 51.191 3.60504C54.3002 5.33772 57.3477 7.17612 60.4225 8.97468L65.667 12.0187C66.619 12.5655 68.6662 13.5791 69.4637 14.4148C69.7677 14.7333 69.3865 15.3314 68.978 15.5765C68.8782 15.8198 69.4107 20.164 69.5206 20.7453C69.8357 20.919 70.5816 21.3701 70.5441 21.6691C70.3704 22.9877 70.7319 23.3908 71.2884 24.5035C71.7488 25.424 72.4597 27.3652 71.8328 28.3012C71.0557 29.4615 68.8184 29.2456 67.5839 29.2523C70.1657 31.8337 72.8461 34.1256 74.9587 37.1509C77.2061 40.3695 76.0505 43.209 73.4183 45.7532C69.937 49.1185 65.6757 51.6297 61.3463 53.7444C60.9147 53.9537 58.5687 54.9721 58.4066 55.1628C58.7727 55.3518 59.5741 56.0422 59.8805 56.359C61.7686 58.3362 63.9033 60.8109 63.9856 63.682C64.0453 65.7634 62.2775 67.27 60.2718 67.199C59.6208 67.1759 58.874 66.9844 58.2787 66.7224C57.8691 66.5422 57.5102 66.0365 57.1478 65.7674C56.133 65.1042 55.3086 64.662 54.455 63.7593C53.6671 65.4212 52.4945 67.0719 51.3601 68.5081C48.9943 71.5034 44.5205 73.3627 43.7687 67.9627C43.4478 69.6573 43.0936 71.0738 41.095 71.3659C40.1748 71.5004 38.9825 71.0161 38.2981 70.4142C34.9504 67.4705 32.4677 61.4085 31.918 57.0937C30.0432 57.2877 26.3088 56.7366 24.497 56.311C19.8044 55.1909 15.1339 52.4277 12.6224 48.2149C11.4622 46.2688 10.3661 43.1319 11.0777 40.8527C12.6128 35.9362 17.2553 37.3812 19.3314 41.0974C19.9962 39.6684 20.3003 38.635 22.1355 39.1618C23.0466 40.015 23.1598 41.0847 23.3419 42.2593C23.762 44.97 24.4863 46.1696 26.2475 48.183L26.4635 48.0152C25.109 46.1409 24.2308 44.8695 23.941 42.4977C23.7307 40.7759 22.9018 37.3239 20.4021 38.6478C19.9557 38.8842 19.6412 39.2506 19.2847 39.6117C18.8244 39.0057 17.5585 37.9539 16.8812 37.5971C17.0412 36.608 17.5212 35.4582 18.1508 34.6859C20.2803 32.0737 23.5804 29.7302 26.2924 27.7652C28.3071 26.3133 30.3054 24.8389 32.2869 23.342C33.3918 22.4902 34.6797 21.0893 35.7651 20.0808C35.5246 19.863 35.4734 19.8131 35.1855 19.6694Z" fill="#022A8A"/>
<path d="M31.918 57.0937C30.0432 57.2877 26.3088 56.7366 24.497 56.3109C19.8044 55.1909 15.1339 52.4277 12.6224 48.2149C11.4622 46.2688 10.3661 43.1318 11.0777 40.8527C12.6128 35.9362 17.2553 37.3812 19.3314 41.0974C19.9962 39.6684 20.3003 38.635 22.1355 39.1618C23.0466 40.015 23.1598 41.0847 23.3419 42.2593C23.762 44.9699 24.4863 46.1695 26.2475 48.183C26.5862 48.569 26.7113 48.7063 27.1171 49.0251C27.7675 49.8501 31.0439 53.0126 31.9167 53.6285C33.2746 54.3505 35.0391 55.1229 36.2565 56.0064C38.0796 57.3294 39.8261 58.8343 41.628 60.1929C42.2717 60.684 43.707 61.8584 44.3924 62.2087C45.3414 61.8348 46.2005 61.2467 47.0784 60.7471C50.0389 59.0622 53.2638 56.4435 56.5926 55.7161L56.6964 55.4284C56.9541 55.221 57.7993 55.274 58.4066 55.1628C58.7727 55.3518 59.5741 56.0422 59.8805 56.359C61.7686 58.3362 63.9033 60.8109 63.9856 63.682C64.0453 65.7634 62.2775 67.27 60.2718 67.199C59.6208 67.1759 58.874 66.9844 58.2787 66.7224C57.8691 66.5422 57.5102 66.0365 57.1478 65.7674C56.133 65.1042 55.3086 64.662 54.455 63.7593C53.6671 65.4212 52.4945 67.0719 51.3601 68.5081C48.9943 71.5034 44.5205 73.3627 43.7687 67.9627C43.4478 69.6573 43.0936 71.0738 41.095 71.3659C40.1748 71.5004 38.9825 71.0161 38.2981 70.4142C34.9504 67.4705 32.4677 61.4085 31.918 57.0937Z" fill="#022A8A"/>
<path d="M31.9167 53.6285C33.2746 54.3505 35.0391 55.1229 36.2565 56.0064C38.0796 57.3294 39.8261 58.8343 41.628 60.1929C42.2717 60.684 43.707 61.8584 44.3924 62.2087C45.3414 61.8348 46.2005 61.2467 47.0784 60.7471C50.0389 59.0622 53.2638 56.4435 56.5926 55.7161L57.6678 55.4091C57.4872 55.8376 57.3358 56.3144 56.9442 56.5934C54.1027 58.6112 51.0466 60.3488 48.1312 62.2661C47.0542 62.9743 45.6145 63.9269 44.4129 64.3141C43.3601 64.0115 42.2197 63.1027 41.3789 62.4259C39.1306 60.6165 36.8915 58.7935 34.6346 56.9942C33.7159 56.2616 32.7199 55.4814 31.8933 54.6547C31.8634 54.3531 31.8157 53.9037 31.9167 53.6285Z" fill="#F8C22E"/>
<path d="M35.1855 19.6694C33.8392 18.895 27.868 15.6914 27.2584 14.8386C27.1194 14.644 27.0863 14.3163 27.1356 14.0846C27.2251 13.6641 27.561 13.3756 27.9074 13.1539C28.5399 12.749 29.2771 12.4592 29.9396 12.0977C31.9135 11.0009 33.9042 9.93455 35.9107 8.89883C38.6837 7.4388 41.4437 5.94573 44.2748 4.59596C46.7697 3.40649 48.4394 2.07159 51.191 3.60504C54.3002 5.33772 57.3477 7.17612 60.4225 8.97468L65.667 12.0187C66.6191 12.5655 68.6662 13.5791 69.4637 14.4148C69.7677 14.7333 69.3865 15.3314 68.978 15.5765C68.8782 15.8198 69.4107 20.164 69.5206 20.7453C69.8357 20.919 70.5816 21.3701 70.5441 21.6691C70.3704 22.9877 70.7319 23.3908 71.2884 24.5035C71.7488 25.424 72.4597 27.3652 71.8328 28.3012C71.0557 29.4615 68.8184 29.2456 67.5839 29.2523C67.1986 28.9123 66.8121 28.5276 66.4402 28.1689C65.0084 26.7697 63.1428 25.3021 61.8955 23.7775C59.976 21.4311 58.674 19.403 56.3357 17.3662C54.7582 16.2964 53.4708 15.4517 51.5975 14.9328C45.3793 13.2108 40.2551 15.9894 35.7651 20.0808C35.5246 19.863 35.4734 19.8131 35.1855 19.6694Z" fill="#022A8A"/>
<path d="M67.2191 16.3751C67.4023 16.0335 66.7968 14.0575 68.5693 14.7383C68.8076 14.8298 68.9169 15.3462 68.978 15.5765C68.8782 15.8198 69.4107 20.164 69.5206 20.7452C69.8357 20.919 70.5816 21.3701 70.5441 21.669C70.3704 22.9877 70.7319 23.3908 71.2884 24.5035C71.7488 25.424 72.4597 27.3652 71.8328 28.3012C71.0557 29.4615 68.8184 29.2456 67.5839 29.2523C67.1986 28.9123 66.8121 28.5276 66.4402 28.1689C65.0083 26.7696 63.1428 25.302 61.8955 23.7774C59.9759 21.4311 58.674 19.403 56.3357 17.3662C56.256 16.8179 54.974 16.6233 54.8229 15.8464C54.9981 15.4295 55.3339 15.7084 55.4988 15.0624C55.8624 15.0368 56.6478 15.9528 57.202 16.0151C58.3111 16.8294 59.6763 18.4508 60.0134 19.8059C61.3629 19.3192 62.9542 18.4225 64.2939 17.7965C65.1687 17.3878 66.419 16.8418 67.2191 16.3751Z" fill="#FEFBF4"/>
<path d="M67.2191 16.3751C67.4024 16.0335 66.7968 14.0575 68.5693 14.7383C68.8076 14.8298 68.9169 15.3462 68.978 15.5765C68.8782 15.8198 69.4107 20.164 69.5206 20.7452C69.8357 20.919 70.5816 21.3701 70.5441 21.669C70.3704 22.9877 70.7319 23.3908 71.2884 24.5035C71.7488 25.424 72.4597 27.3652 71.8328 28.3012C71.0557 29.4615 68.8184 29.2456 67.5839 29.2523C67.1986 28.9123 66.8121 28.5276 66.4402 28.1689C66.6421 26.2318 66.6676 25.568 67.2572 23.6505C66.9767 22.5685 66.7625 21.555 67.9547 20.9637C67.8044 19.8774 67.508 17.3238 67.2191 16.3751Z" fill="#F8C22E"/>
<path d="M35.1855 19.6694C35.5759 19.0972 35.683 18.6003 36.3316 17.9224C39.0293 15.1031 43.7468 12.8867 47.615 12.6434C50.6717 12.4511 54.9681 13.9889 57.202 16.0151C56.6478 15.9528 55.8625 15.0368 55.4989 15.0624C55.3339 15.7084 54.9981 15.4296 54.823 15.8464C54.9741 16.6233 56.256 16.8179 56.3357 17.3662C54.7582 16.2964 53.4708 15.4517 51.5975 14.9328C45.3793 13.2108 40.2551 15.9894 35.7651 20.0808C35.5246 19.863 35.4734 19.8131 35.1855 19.6694Z" fill="#FCE1AA"/>
<path d="M26.4635 48.0152C26.6885 48.2945 27.0453 48.6836 27.1171 49.0251C26.7113 48.7063 26.5862 48.569 26.2475 48.183L26.4635 48.0152Z" fill="#E9E0FA"/>
<path d="M36.6312 25.9308C36.8287 25.8921 37.4544 25.8969 37.696 25.8823C39.8367 25.7445 42.2055 26.5346 44.157 27.3685C46.6869 28.4495 47.5807 28.5571 50.2113 27.6819C53.4552 26.6028 56.8524 26.0057 60.0861 27.4949C62.6816 28.6179 64.5638 31.0257 65.5534 33.649C66.8295 37.0324 66.8075 41.3645 65.3255 44.6945C63.4824 48.8359 60.1763 51.2253 56.0437 52.7704C48.354 55.4548 37.243 54.6494 30.6169 49.5626C27.8612 47.447 26.0523 44.0787 25.8261 40.5983C25.4095 34.1899 29.7703 26.6125 36.6312 25.9308Z" fill="#FDFDF7"/>
<path d="M55.9347 33.6688C58.9143 33.4873 61.4811 35.7461 61.6801 38.7245C61.8791 41.703 59.6355 44.2831 56.6583 44.4996C53.6562 44.718 51.0497 42.4515 50.8491 39.4482C50.6484 36.4447 52.9302 33.8518 55.9347 33.6688Z" fill="#022A8A"/>
<path d="M54.966 35.2629C56.4719 35.1951 56.8871 36.1681 56.6339 37.4925C56.1906 37.9915 55.9767 38.3767 55.3485 38.4958C53.7574 38.5947 53.3456 37.4725 53.6554 36.1151C54.0486 35.6473 54.3862 35.4228 54.966 35.2629Z" fill="#FDFDF7"/>
<path d="M58.0495 40.8298C58.5928 40.9322 59.2482 41.1226 59.0893 41.8529C58.9718 42.393 58.525 42.5846 58.0847 42.8432L57.9378 42.8601C56.8819 42.3837 57.0182 41.1776 58.0495 40.8298Z" fill="#FDFDF7"/>
<path d="M36.0311 32.862C39.0088 32.8046 41.4756 35.1593 41.5567 38.1365C41.6378 41.1136 39.3028 43.5991 36.3264 43.7039C33.3163 43.8099 30.7964 41.4427 30.7144 38.4318C30.6324 35.4209 33.0196 32.92 36.0311 32.862Z" fill="#022A8A"/>
<path d="M35.1362 34.4727C35.6735 34.4613 36.1811 34.7181 36.4902 35.1577C36.7994 35.5972 36.8694 36.1619 36.677 36.6636C36.4536 37.2467 35.9137 37.6485 35.2911 37.6952C34.7059 37.7391 34.1429 37.4618 33.821 36.9712C33.4992 36.4804 33.469 35.8537 33.7424 35.3344C34.0157 34.8151 34.5494 34.4852 35.1362 34.4727Z" fill="#FDFDF7"/>
<path d="M33.2837 39.7815C34.7782 39.8494 34.8496 41.3627 33.8547 41.6255C32.6911 41.4648 31.9872 40.3332 33.2837 39.7815Z" fill="#FDFDF7"/>
<path d="M60.4175 44.4846C63.4938 43.9685 64.4344 46.9673 60.2104 47.322C59.2387 47.3776 56.7113 47.3897 57.8775 45.5048C58.3266 44.7788 59.5976 44.5908 60.4175 44.4846Z" fill="#F8C22E"/>
<path d="M30.1549 43.1492C31.1475 43.1716 34.3193 43.5951 33.6059 45.6286C33.5009 45.928 32.6516 46.225 32.2953 46.2689C31.1008 46.2407 29.9391 45.8215 28.9323 45.1911C28.5619 44.4126 28.581 44.2299 28.9147 43.46C29.3687 43.2457 29.6666 43.1899 30.1549 43.1492Z" fill="#F8C22E"/>
<path d="M11.5547 22.8692C11.6883 22.8701 12.2338 22.9148 12.3199 22.9914C13.3726 24.1173 13.7492 26.221 14.23 27.6928C14.6327 28.9257 14.7821 29.7339 13.457 30.1055C13.2745 30.0915 13.088 30.0641 12.9151 30.0017C12.6617 29.9101 12.5332 29.6907 12.4232 29.462C12.0396 28.6652 10.3759 24.4092 10.6261 23.7565C10.7849 23.3425 11.1652 23.0503 11.5547 22.8692Z" fill="#F8C22E"/>
<path d="M5.85946 27.5421C6.35659 27.5431 7.17983 27.8871 7.50604 28.2416C8.74564 29.589 12.7183 30.7951 10.0811 32.6368C9.87295 32.6485 2.63105 29.2609 5.85946 27.5421Z" fill="#F8C22E"/>
<path d="M7.23424 34.5552C7.85784 34.5081 9.06456 34.3594 9.43736 34.7686C10.3612 35.7828 8.89883 36.8941 7.84722 36.769C7.66479 36.7473 6.87839 36.8439 6.70485 36.8565C6.08517 36.9074 5.17466 37.0429 4.75876 36.6051C3.73536 35.5278 5.09049 34.4889 6.2265 34.6071C6.41599 34.6268 7.04559 34.5641 7.23424 34.5552Z" fill="#F8C22E"/>
</svg>
