<svg width="83" height="82" viewBox="0 0 83 82" fill="none" xmlns="http://www.w3.org/2000/svg">
<path d="M5.69363 19.5068C2.45062 18.9045 6.34235 16.4869 7.35593 15.666C9.24678 14.1146 11.1506 12.5788 13.067 11.059L20.2194 5.4255C22.4624 3.65545 25.2445 0.703994 28.3129 1.59623C31.7382 2.59222 35.1553 3.6623 38.5523 4.75515L42.8802 6.17691C44.8891 6.81824 46.7337 7.05306 44.3947 9.36715C42.9301 10.8162 41.1329 12.1762 39.7107 13.6287C39.4825 13.8425 39.2564 14.0583 39.0321 14.276C39.8431 14.757 40.6306 15.2764 41.3919 15.8328C42.1896 16.4277 42.9543 17.0919 43.8158 17.5933C47.7563 19.8872 60.8165 25.8016 61.9274 30.1817C62.5445 32.615 61.4852 34.9253 60.2485 36.9575C59.002 39.006 57.4849 40.9014 55.9372 42.7275C55.1567 43.6484 54.2641 44.5473 53.5878 45.5452C56.6048 44.3713 67.1514 40.3804 69.8186 41.5185C70.2127 41.6868 70.5428 41.959 70.6935 42.3696C70.8759 42.8662 70.7399 43.4205 70.5772 43.9048C68.9106 45.4315 68.2201 45.5579 66.0969 46.3285C66.7224 46.8629 67.1006 47.4175 67.1936 48.2581C67.3232 49.428 66.2736 50.0219 66.7502 51.2C66.888 51.5405 65.946 53.1758 65.6367 53.4209C64.5157 54.6437 62.8453 55.021 61.2995 54.5258C58.5345 56.3885 51.0343 55.9886 47.7567 55.6272C47.0339 60.9254 43.7506 67.7135 39.561 71.1055C37.9132 72.4396 35.1835 73.1044 33.5756 71.2426C32.8228 70.3709 33.0832 68.328 32.1936 68.0692C31.7388 67.9369 30.4014 69.5847 30.0013 69.8631C28.3124 71.3435 26.5332 72.621 24.1757 72.3349C21.3293 71.9467 21.1962 69.7577 21.2056 67.527C19.9183 67.2547 17.8682 66.761 16.6358 66.6036C19.1376 64.9946 19.6635 62.0832 17.7806 59.7449L17.5985 60.0043C18.2695 61.0643 18.2637 62.0385 18.2019 63.2602C18.0683 65.9006 15.7293 67.1464 13.3073 66.8998C10.1584 66.579 7.75121 64.3569 7.95542 61.0664C8.16765 58.4414 9.88076 56.2796 11.9673 54.8241C12.6909 54.3193 13.5231 53.9872 14.2172 53.4083L14.2498 53.3808C14.2102 54.5989 14.2858 55.8339 14.1911 57.0517C14.1546 57.5219 14.2151 57.8309 14.4044 58.2583L14.3972 58.2271L14.5791 58.282C14.7826 57.6425 14.6689 52.9268 14.6697 51.9319C14.0137 51.8065 13.1615 51.5039 12.5051 51.237C8.92935 49.7834 3.7281 47.5086 2.58405 43.5033C2.06192 41.6755 3.84782 38.6133 4.88452 37.1633C7.49558 33.5115 10.5151 30.0391 13.2932 26.5011C14.3589 25.1361 15.2361 23.5812 16.1736 22.1236C15.8584 22.0536 15.3751 21.9288 15.0665 21.9196C14.2102 21.6733 13.2159 21.5019 12.3352 21.2875L7.07143 19.9544C6.60909 19.8149 6.14972 19.6656 5.69363 19.5068Z" fill="#022B8B"/>
<path d="M5.69363 19.5068C2.45062 18.9045 6.34234 16.4869 7.35593 15.666C9.24678 14.1146 11.1506 12.5788 13.067 11.059L20.2194 5.4255C22.4624 3.65545 25.2445 0.703994 28.3129 1.59623C31.7382 2.59222 35.1553 3.6623 38.5523 4.75515L42.8802 6.17691C44.8891 6.81824 46.7337 7.05306 44.3947 9.36715C42.9301 10.8162 41.1329 12.1762 39.7107 13.6287C39.4825 13.8425 39.2564 14.0583 39.0321 14.276C38.5034 13.9758 37.9445 13.6444 37.3956 13.3887C29.2833 9.61026 20.2439 14.9879 16.1736 22.1236C15.8583 22.0536 15.3751 21.9288 15.0665 21.9196C14.2102 21.6733 13.2158 21.5019 12.3352 21.2875L7.07142 19.9544C6.60909 19.8149 6.14972 19.6656 5.69363 19.5068Z" fill="#022B8B"/>
<path d="M15.0665 21.9196C15.2007 21.6738 15.2527 21.3218 15.3705 21.0919C18.8171 14.3615 27.3055 8.70946 35.0351 10.9504C36.4767 11.3683 39.0026 12.2961 39.7107 13.6287C39.4825 13.8425 39.2564 14.0583 39.0321 14.276C38.5034 13.9758 37.9445 13.6444 37.3956 13.3887C29.2833 9.61026 20.2439 14.9879 16.1736 22.1236C15.8584 22.0536 15.3751 21.9288 15.0665 21.9196Z" fill="#FCDB9E"/>
<path d="M16.3802 59.1284C16.3454 59.0968 16.3113 59.0643 16.278 59.0312C15.6574 58.4164 16.3334 54.2027 16.1496 53.1493C16.0974 52.8504 16.24 52.2956 16.4763 52.0591C16.4987 52.0791 16.624 52.1914 16.6241 52.1927C16.7354 53.6649 16.6048 57.8816 16.5763 59.0237L16.3802 59.1284Z" fill="#FDFCF7"/>
<path d="M16.5763 59.0237C16.9694 59.2754 17.465 59.4677 17.7806 59.7449L17.5985 60.0043C17.3834 59.781 16.6689 59.3229 16.3802 59.1284L16.5763 59.0237Z" fill="#F2ECF8"/>
<path d="M42.6346 21.4131C45.7947 20.9425 49.1205 22.6849 51.044 25.1283C53.6599 28.4512 54.8575 32.5041 54.4064 36.7242C53.3902 46.2289 43.0665 51.2006 34.6173 52.4203C32.8428 52.6775 31.1418 53.0896 29.3254 52.896C29.1214 52.6663 29.23 52.3568 29.0754 52.2033C28.6346 51.7659 27.324 51.5223 26.765 51.3895C25.2796 51.0145 19.0505 49.8641 18.1069 49.0847C12.637 44.5666 12.1781 34.9941 16.6944 29.6385C20.0815 25.622 24.1908 24.8759 29.1761 25.4484C31.716 25.7402 33.481 25.837 35.5676 24.2266C37.7105 22.7051 39.9764 21.6757 42.6346 21.4131Z" fill="#FDFCF7"/>
<path d="M44.6315 28.2087C51.1128 28.0804 52.2746 38.5832 45.1323 39.4488C42.5633 39.7869 40.2164 37.5956 39.8297 35.1377C39.2944 31.7347 41.1223 28.7312 44.6315 28.2087Z" fill="#022B8B"/>
<path d="M42.9907 30.3696C45.2306 30.0709 45.8954 32.5954 43.8456 33.4263C42.5948 33.6714 42.1675 32.9842 41.9321 31.9144C42.1505 31.0469 42.1643 30.7958 42.9907 30.3696Z" fill="#FDFCF7"/>
<path d="M47.3 35.1708C48.7276 35.345 48.3315 36.7328 47.1301 37.0971C45.9073 36.9277 45.8465 35.4734 47.3 35.1708Z" fill="#FDFCF7"/>
<path d="M25.0557 32.7042C29.3996 32.4691 32.2279 37.8005 29.7907 41.3222C28.6898 42.913 27.8413 43.3003 26.0272 43.7075C25.9484 43.7208 25.8692 43.7318 25.7898 43.7403C24.6358 43.8652 23.1415 43.3739 22.2386 42.6327C19.3368 40.251 19.7303 35.1855 22.9626 33.2731C23.6776 32.8501 24.2402 32.7718 25.0557 32.7042Z" fill="#022B8B"/>
<path d="M25.9636 34.276C26.7525 34.1958 27.0717 34.3919 27.7178 34.7767C28.5679 36.3148 27.9073 36.7964 26.6557 37.5593C26.5285 37.6118 26.4468 37.6151 26.3108 37.6377C24.4881 37.1227 24.2731 35.2743 25.9636 34.276Z" fill="#FDFCF7"/>
<path d="M23.1423 40.5101C24.4282 40.4165 24.9409 41.3154 23.8447 42.1183C22.5897 42.3719 22.1197 41.3211 23.1423 40.5101Z" fill="#FDFCF7"/>
<path d="M50.9389 37.7322C51.555 37.6768 52.4721 37.78 52.7238 38.4465C53.2982 39.9675 50.5178 40.9526 49.5007 41.3804C47.6283 41.758 47.0779 40.3064 48.3431 39.0712C49.0797 38.3518 49.9406 37.9497 50.9389 37.7322Z" fill="#F8C231"/>
<path d="M20.2877 44.4647C21.1335 44.4109 24.4673 44.3025 24.0333 46.3383C23.9519 46.7199 22.8783 47.0885 22.4645 47.1857C18.1807 47.7865 17.3364 44.921 20.2877 44.4647Z" fill="#F8C231"/>
<path d="M48.278 50.6749L48.3938 50.8372C48.4311 51.152 48.4484 51.4401 48.3425 51.7446C47.6107 53.8501 40.6321 60.3571 38.5941 61.9043C38.0295 62.333 37.4682 62.6619 36.827 62.9637C34.5504 62.0746 31.6162 60.1371 29.1828 59.041C28.9136 58.7295 29.0619 57.3143 29.0813 56.8438C31.0022 57.6726 32.8166 58.7465 34.6971 59.6628C35.4105 60.0105 36.2016 60.4598 36.9375 60.7296C38.7988 59.2557 40.587 57.692 42.296 56.0439C43.8199 54.5832 45.2683 52.9665 46.9648 51.7063C47.4093 51.3761 47.846 51.0209 48.278 50.6749Z" fill="#F8C231"/>
<path d="M27.6209 53.9726C27.728 53.9829 27.6754 53.9717 27.7769 54.0542C27.9002 55.091 27.518 57.9276 27.4097 59.1386C27.2119 61.3479 27.2387 63.9805 26.979 66.1267C26.5429 66.5437 26.2747 66.6599 25.7321 66.862L25.5671 66.7816C25.4932 66.0814 25.6863 63.7744 25.7132 62.9928C25.8062 60.2873 25.9961 57.5527 26.0856 54.8487C26.6024 54.5656 27.1142 54.2735 27.6209 53.9726Z" fill="#FDFCF7"/>
<path d="M17.1504 50.7055C18.4902 50.8002 19.8401 51.301 21.1289 51.5441C23.2713 51.9484 24.9926 52.344 27.096 52.9554C26.6311 53.2516 26.1075 53.5926 25.7337 53.9925L25.6542 54.0974C25.3856 54.1604 23.6706 53.6252 23.2203 53.521L17.9506 52.3323C17.4692 52.221 16.3489 52.1669 16.1585 51.7634C15.8747 51.1623 16.7623 50.816 17.1504 50.7055Z" fill="#FDFCF7"/>
<path d="M63.6307 46.6528L63.8268 46.7635C64.5965 47.7942 63.6174 49.5507 62.43 49.7812C61.6944 49.9242 61.1494 49.9542 60.398 49.9477L60.2539 49.8866L60.2216 49.7919C60.5297 49.644 61.5463 49.6108 61.9951 49.49C63.5888 49.0608 64.0018 48.2267 63.6307 46.6528Z" fill="#F2ECF8"/>
<path d="M5.37119 23.9383C5.89403 23.9196 6.35056 23.8905 6.87206 23.9511C7.94894 24.5636 7.80265 25.4546 7.65496 26.5126C8.22971 27.8423 8.91654 29.7638 8.57773 31.3022C8.41365 31.8132 7.95342 32.0497 7.53779 32.2801C6.46531 32.8749 3.74227 32.6767 3.27143 31.3634C2.97285 30.5305 3.5636 28.3175 3.85555 27.4355C3.92324 27.231 4.18647 26.7299 4.31234 26.5195C4.27573 25.9812 4.07431 25.4803 4.32612 24.9104C4.53006 24.4594 4.9066 24.1091 5.37119 23.9383Z" fill="#F8C231"/>
<path d="M71.0466 19.8694C74.043 19.7566 71.6801 23.6104 71.2273 25.0702C70.8981 26.1316 70.6093 27.2046 69.6515 27.7898C68.6366 27.9186 68.4089 27.4526 68.0918 26.6152C68.504 24.7165 69.2186 22.9339 69.8479 21.0918C70.0958 20.3659 70.3891 20.1409 71.0466 19.8694Z" fill="#F8C231"/>
<path d="M77.4558 25.702C77.6395 25.7036 77.8353 25.7007 78.0151 25.7407C78.3664 25.819 78.5939 26.0511 78.7736 26.3529C78.952 26.6523 79.0081 27.0032 78.9191 27.3413C78.6037 28.5404 74.6198 30.5605 73.4193 31.2748C72.2265 31.6153 71.7671 29.9731 72.069 29.6114C73.0788 28.4016 76.0167 26.3081 77.4558 25.702Z" fill="#F8C231"/>
<path d="M73.9001 33.5537C73.977 33.5528 74.3581 33.5664 74.449 33.5918C75.7161 33.9461 80.2135 33.5636 79.1451 35.9013C78.9499 36.3287 78.8975 36.4275 78.4707 36.6079C77.1035 36.6526 70.5952 36.008 73.9001 33.5537Z" fill="#F8C231"/>
<path d="M5.69364 19.5068C6.14972 19.6656 6.60909 19.8148 7.07143 19.9544C7.04577 21.1013 7.00934 22.8369 6.87207 23.9511C6.35057 23.8905 5.89403 23.9196 5.3712 23.9383C5.3425 22.9014 5.57755 20.5544 5.69364 19.5068Z" fill="#F8C231"/>
</svg>
