<svg width="201" height="156" viewBox="0 0 201 156" fill="none" xmlns="http://www.w3.org/2000/svg">
<path d="M120.715 27.0962L164.171 27.1087L164.169 31.4891C156.947 32.3851 154.616 33.1951 148.011 35.5598C148.23 38.2634 148.118 41.9021 148.123 44.6716L148.122 61.2559L148.139 98.4075C148.086 105.757 148.096 113.107 148.167 120.456L164.166 120.458L164.177 123.422C164.191 123.915 164.273 124.384 163.979 124.814C163.02 125.004 153.215 124.922 151.429 124.921L120.717 124.922L120.71 120.451C125.487 120.543 130.687 120.469 135.497 120.471C135.712 117.337 135.601 113.861 135.596 110.701L135.591 95.2327C135.61 75.5037 135.312 55.3284 135.643 35.6285C130.82 33.7834 126.134 32.0536 120.71 31.6112L120.715 27.0962Z" fill="#E3C924"/>
<path d="M40.0739 27.0904C54.3913 27.2138 68.9446 27.1027 83.2834 27.1189L83.3254 31.5038C76.799 32.5275 74.4678 33.411 68.5115 35.6189L68.5588 120.452L83.293 120.462C83.2561 121.471 83.5888 124.127 83.0145 124.836L82.3272 124.904C68.3522 125.021 54.0761 124.912 40.081 124.926C40.1109 123.47 40.0755 121.916 40.0719 120.453L56.1203 120.476L56.1428 60.6711C56.1426 52.5982 55.89 43.6192 56.2044 35.6306C50.5936 33.5568 46.3433 32.0169 40.0768 31.5707C40.1065 30.1072 40.0755 28.5599 40.0739 27.0904Z" fill="#E3C924"/>
<path d="M80.2371 34.7577C80.4963 35.0738 80.0417 35.978 79.9136 36.4198C78.4755 41.3784 78.9135 46.5544 78.9115 51.6505L78.9181 71.1508L93.9239 71.1276C100.594 71.1183 108.014 70.1994 109.178 77.3763C109.225 77.6688 108.991 77.8958 108.606 77.9388C106.887 78.1309 105.101 77.9714 103.367 77.9867C98.8956 78.2105 87.3403 77.5585 83.5229 78.2151C82.4551 78.3915 81.4731 78.7929 80.6882 79.374C78.2589 81.193 78.8936 85.8833 78.8954 88.3822L78.9169 99.4043L78.897 117.7C76.7042 117.747 74.3245 117.722 72.1176 117.728L72.1266 66.4117L72.1341 47.7942C72.1359 44.4416 72.2626 40.6129 72.0632 37.3196C74.982 36.2871 77.2447 35.5953 80.2371 34.7577Z" fill="#053686"/>
<path d="M123.649 34.7202C126.567 35.4565 129.127 36.3119 131.928 37.2592C131.732 39.8483 131.881 43.6747 131.881 46.3309L131.882 63.6577L131.869 117.693C129.617 117.717 127.365 117.733 125.113 117.739L125.12 99.8994L125.118 87.4398C120.309 87.4922 115.403 87.3975 110.605 87.4578C103.164 87.551 95.9577 88.2611 94.9383 80.7751C103.502 80.6819 112.984 81.0839 121.557 80.5233C122.327 80.4728 123.822 79.1982 124.244 78.6525C124.706 78.0632 124.991 77.4025 125.077 76.7185C125.233 75.4134 125.127 72.8097 125.127 71.4239L125.129 60.9689L125.125 47.8806C125.121 42.6835 125.353 39.8138 123.649 34.7202Z" fill="#053686"/>
<path d="M160.215 34.7469C160.475 34.7958 160.349 34.752 160.553 34.9646C158.39 38.0145 158.937 44.62 158.938 48.1147L158.937 63.9635L158.899 117.676C156.583 117.743 154.378 117.727 152.062 117.711C151.836 117.583 151.798 117.328 151.797 117.126C151.774 109.86 151.786 102.578 151.788 95.3142L151.795 52.3266L151.797 42.8543C151.799 41.3505 151.92 38.6341 151.635 37.2826C154.717 36.2213 157.032 35.5324 160.215 34.7469Z" fill="#053686"/>
<path d="M43.6789 34.7169C45.7348 35.0183 50.4984 36.6154 52.5987 37.3219C52.4013 39.911 52.5358 43.4545 52.5366 46.1207L52.5439 62.3651L52.5103 117.678C50.2175 117.76 47.7282 117.728 45.4195 117.731L45.4185 69.2218L45.4292 50.569C45.4308 46.9438 45.5828 43.0015 45.1099 39.4124C44.9605 38.2787 44.0939 35.9181 43.6789 34.7169Z" fill="#053686"/>
</svg>
